<svg width="55" height="37" viewBox="0 0 55 37" fill="none" xmlns="http://www.w3.org/2000/svg">
<path d="M0 4.625C0 2.07068 2.05203 0 4.58333 0H50.4167C52.948 0 55 2.07068 55 4.625V32.375C55 34.9293 52.948 37 50.4167 37H4.58333C2.05203 37 0 34.9293 0 32.375V4.625Z" fill="#D4DEF7"/>
<path d="M40.5886 11.4131L39.5244 13.7804H41.6585L40.5886 11.4131ZM28.3085 12.88C28.5091 12.784 28.6272 12.575 28.6272 12.3155C28.6272 12.0612 28.5031 11.877 28.3026 11.7905C28.1199 11.6945 27.8388 11.6834 27.5693 11.6834H25.6654V13.0025H27.5438C27.8446 13.0025 28.0959 12.9985 28.3085 12.88ZM3.91263 11.4131L2.86049 13.7804H4.97112L3.91263 11.4131ZM52.899 26.5787H49.9131V25.305H52.8869C53.1817 25.305 53.3882 25.2695 53.5125 25.1579C53.63 25.0583 53.6965 24.9177 53.6953 24.7706C53.6953 24.5975 53.6204 24.4601 53.5063 24.3779C53.3943 24.2872 53.2308 24.2459 52.9615 24.2459C51.5097 24.2006 49.6986 24.287 49.6986 22.4075C49.6986 21.5461 50.2945 20.6392 51.917 20.6392H54.9969V19.4575H52.1354C51.2719 19.4575 50.6445 19.6473 50.2003 19.9426V19.4575H45.9679C45.2912 19.4575 44.4967 19.6114 44.121 19.9426V19.4575H36.5626V19.9426C35.9612 19.5442 34.9461 19.4575 34.4779 19.4575H29.4923V19.9426C29.0166 19.5195 27.9581 19.4575 27.3133 19.4575H21.7337L20.4571 20.7259L19.2613 19.4575H10.9265V27.7459H19.104L20.4195 26.4571L21.6588 27.7459L26.6994 27.75V25.8002H27.1951C27.8639 25.8101 28.6527 25.7852 29.3488 25.509V27.7457H33.5064V25.5853H33.707C33.9628 25.5853 33.9882 25.5952 33.9882 25.83V27.7452H46.6187C47.4206 27.7452 48.2589 27.557 48.723 27.2146V27.7452H52.7294C53.563 27.7452 54.3772 27.6379 54.9967 27.3633V25.8193C54.6213 26.3234 53.8891 26.579 52.8988 26.579L52.899 26.5787ZM27.2613 24.6216H25.3321V26.6139H22.3269L20.423 24.6477L18.4445 26.6139H12.3201V20.6742H18.5387L20.4409 22.6212L22.4076 20.6742H27.3481C28.5751 20.6742 29.9537 20.9862 29.9537 22.631C29.9537 24.281 28.6128 24.6216 27.2613 24.6216V24.6216ZM36.5382 24.3523C36.7566 24.6422 36.7881 24.9129 36.7945 25.4365V26.6139H35.242V25.8709C35.242 25.5136 35.2796 24.9844 34.9921 24.7082C34.7665 24.4955 34.4219 24.4447 33.8577 24.4447H32.2054V26.6139H30.6519V20.6743H34.2213C35.0044 20.6743 35.5743 20.7063 36.0818 20.9546C36.5697 21.2252 36.8768 21.596 36.8768 22.2736C36.8767 23.2215 36.188 23.7051 35.781 23.8538C36.1249 23.9703 36.4061 24.1793 36.5382 24.3523V24.3523ZM42.925 21.9027H39.3044V22.9824H42.8366V24.1944H39.3044V25.3761L42.925 25.3814V26.6139H37.7647V20.6742H42.925V21.9027V21.9027ZM46.8981 26.6138H43.8868V25.3401H46.8861C47.1795 25.3401 47.3874 25.3045 47.5177 25.193C47.624 25.1012 47.7004 24.9676 47.7004 24.8059C47.7004 24.6326 47.6176 24.4952 47.5117 24.4128C47.3934 24.3222 47.2302 24.2812 46.9611 24.2812C45.5151 24.2357 43.7043 24.3221 43.7043 22.4427C43.7043 21.5811 44.294 20.6743 45.9149 20.6743H49.0147V21.9383H46.1783C45.8972 21.9383 45.7144 21.9482 45.559 22.0459C45.3894 22.1421 45.3266 22.2847 45.3266 22.473C45.3266 22.697 45.4705 22.8496 45.6649 22.9155C45.8281 22.9676 46.0031 22.9828 46.2666 22.9828L47.099 23.0036C47.9381 23.0221 48.5144 23.1557 48.8647 23.4812C49.1655 23.7671 49.3272 24.1283 49.3272 24.7395C49.327 26.0173 48.4574 26.6138 46.8981 26.6138V26.6138ZM34.9064 21.9985C34.7196 21.8966 34.4439 21.8912 34.1688 21.8912H32.2648V23.2251H34.1433C34.4441 23.2251 34.6998 23.2153 34.9064 23.1027C35.1068 22.9915 35.2268 22.7866 35.2268 22.5326C35.2268 22.2786 35.1068 22.0947 34.9064 21.9985ZM52.1817 21.891C51.9005 21.891 51.7135 21.9008 51.5561 21.9983C51.3929 22.0947 51.3303 22.2373 51.3303 22.4257C51.3303 22.6496 51.468 22.8022 51.6683 22.8682C51.8316 22.9203 52.0065 22.9355 52.264 22.9355L53.1022 22.9559C53.9477 22.9752 54.5124 23.1088 54.8566 23.4343C54.9193 23.4794 54.9569 23.5302 55 23.5812V21.8912H52.1819L52.1817 21.891V21.891ZM27.3149 21.891H25.2989V23.4038H27.297C27.891 23.4038 28.2604 23.1332 28.2607 22.6194C28.2604 22.0999 27.8731 21.891 27.3149 21.891V21.891ZM13.86 21.891V22.9709H17.2543V24.1829H13.86V25.3645H17.6614L19.4276 23.622L17.7364 21.891H13.86ZM23.7863 26.0447V21.2828L21.4125 23.6254L23.7863 26.0447V26.0447ZM13.9898 16.5083V17.5317H26.9073L26.9013 15.3666H27.1513C27.3264 15.3723 27.3773 15.3871 27.3773 15.6524V17.5318H34.0584V17.0277C34.5972 17.2928 35.4353 17.5318 36.5382 17.5318H39.3489L39.9505 16.2129H41.2841L41.8723 17.5318H47.2886V16.2789L48.1086 17.5317H52.4491V9.25H48.1538V10.2281L47.5523 9.25H43.1446V10.2281L42.5923 9.25H36.6385C35.6418 9.25 34.766 9.37769 34.0583 9.73361V9.25H29.9496V9.73361C29.4992 9.36675 28.8856 9.25 28.2035 9.25H13.1931L12.186 11.3891L11.1517 9.25H6.42393V10.2281L5.90445 9.25H1.87244L7.05144e-05 13.1878V16.3376L2.76875 10.3993H5.06603L7.69551 16.0216V10.3993H10.2192L12.2426 14.4277L14.1015 10.3993H16.6757V16.3376H15.0909L15.0851 11.6868L12.8431 16.3376H11.4855L9.23773 11.6827V16.3376H6.09279L5.49871 15.013H2.27945L1.67923 16.3376H0V17.5322H2.64189L3.23753 16.2132H4.57123L5.16532 17.5322H10.3631V16.5237L10.8271 17.5364H13.5254L13.9893 16.5085L13.9898 16.5083ZM34.3451 11.0915C34.8447 10.6175 35.6277 10.399 36.6931 10.399H38.1899V11.6714H36.7245C36.1605 11.6714 35.8416 11.7484 35.5349 12.0232C35.2711 12.2732 35.0903 12.7459 35.0903 13.3682C35.0903 14.0045 35.2282 14.4631 35.5154 14.7628C35.7535 14.9978 36.1862 15.069 36.5931 15.069H37.2877L39.4667 10.3992H41.7834L44.4011 16.0159V10.3992H46.7553L49.4732 14.5349V10.3992H51.0569V16.3373H48.8659L45.9352 11.8804V16.3373H42.7863L42.1846 15.0128H38.9727L38.389 16.3373H36.5796C35.8281 16.3373 34.8766 16.1848 34.3377 15.6805C33.7943 15.1763 33.5118 14.4933 33.5118 13.4136C33.5115 12.5328 33.6803 11.7277 34.3451 11.0915V11.0915ZM31.1649 10.399H32.7424V16.3373H31.1649V10.399ZM24.0521 10.399H27.6083C28.3982 10.399 28.9808 10.4183 29.4806 10.6835C29.9697 10.9487 30.263 11.336 30.263 11.9982C30.263 12.9451 29.5746 13.4342 29.1737 13.5811C29.5119 13.6994 29.801 13.9082 29.9387 14.0811C30.157 14.3765 30.1946 14.6404 30.1946 15.1707V16.3372H28.6352L28.6293 15.5884C28.6293 15.231 28.6666 14.7171 28.3853 14.4316C28.1594 14.2228 27.815 14.1774 27.2582 14.1774H25.5985V16.3373H24.0523L24.0521 10.399V10.399ZM17.8191 10.399H22.9842V11.6356H19.3654V12.706H22.8973V13.9233H19.3654V15.1092H22.9842V16.3372H17.8191V10.399V10.399Z" fill="#2557D6"/>
</svg>
