<svg width="56" height="37" viewBox="0 0 56 37" fill="none" xmlns="http://www.w3.org/2000/svg">
<path d="M0 4.625C0 2.07068 2.08934 0 4.66667 0H51.3333C53.9107 0 56 2.07068 56 4.625V32.375C56 34.9293 53.9107 37 51.3333 37H4.66667C2.08934 37 0 34.9293 0 32.375V4.625Z" fill="#FCE0CF"/>
<path d="M33.3437 18.4795C33.348 17.4854 32.9719 16.4899 32.2151 15.7397C31.4566 14.988 30.4496 14.6156 29.4445 14.6216C29.4397 14.6216 29.4351 14.6213 29.4301 14.6213C27.2475 14.6213 25.5163 16.3366 25.5163 18.5003C25.5163 20.6426 27.2689 22.379 29.4301 22.379C31.6132 22.379 33.3442 20.6634 33.3442 18.5003C33.3442 18.4932 33.3437 18.4865 33.3437 18.4795Z" fill="#F26E21"/>
<path d="M24.7885 20.1411C24.2036 20.7215 23.6636 20.9482 23.0821 20.9605C21.6653 20.9479 20.6237 19.9081 20.6237 18.4256C20.6237 17.6793 20.9088 17.0677 21.3605 16.5452C21.784 16.1467 22.3296 15.8892 22.9571 15.8892C23.6344 15.8892 24.1615 16.1129 24.7632 16.7097V14.9941C24.1616 14.6958 23.6343 14.5466 22.9571 14.5466C22.0003 14.6143 21.0982 14.9975 20.4062 15.5991C20.2067 15.7769 20.0156 15.9733 19.8536 16.1979C19.3481 16.8472 19.0426 17.6423 19.0426 18.5005C19.0426 20.6634 20.7743 22.3045 22.957 22.3045C22.9676 22.3045 22.9781 22.3036 22.9884 22.3035C23.0031 22.3037 23.0176 22.3045 23.0321 22.3045C23.6342 22.3045 24.1615 22.1556 24.8388 21.8572L24.7885 20.1411C24.7631 20.1663 24.8137 20.1897 24.7885 20.2135V20.1411Z" fill="#2B2B2B"/>
<path d="M38.2853 15.6148L36.5807 19.7683L34.6236 14.8446H33.0432L36.1291 22.3788H36.957L40.1935 14.8446H38.6131L38.2853 15.6148Z" fill="#2B2B2B"/>
<path d="M40.7959 18.1269V22.1554H44.8606H44.9355V20.9614H43.656H42.3012V19.619V18.9478H44.8606V17.6793H42.3012V16.1129H44.9355V14.8446H40.7959V18.1269Z" fill="#2B2B2B"/>
<path d="M6.77458 14.8446H4.66667V22.1554H6.77447C7.90332 22.1554 8.73114 21.8567 9.40855 21.3345C10.2364 20.6632 10.7635 19.6191 10.7635 18.5003C10.7636 16.3364 9.18268 14.8446 6.77458 14.8446ZM8.50558 20.365C8.05393 20.7379 7.45178 20.9614 6.54849 20.9614H6.09685V16.1128H6.47313C7.37642 16.1128 7.97857 16.262 8.43032 16.7094C8.95712 17.1567 9.25835 17.8284 9.25835 18.5C9.33361 19.1714 9.03258 19.917 8.50558 20.365Z" fill="#2B2B2B"/>
<path d="M12.8715 14.8439H11.4414V22.1546H12.8715V14.8439Z" fill="#2B2B2B"/>
<path d="M16.484 17.6794C15.5809 17.381 15.3548 17.1571 15.3548 16.7842C15.3548 16.3366 15.8065 15.9637 16.4086 15.9637C16.8603 15.9637 17.2366 16.113 17.6129 16.5606L18.3658 15.5909C17.7635 15.0685 17.0111 14.7705 16.1831 14.7705C14.9032 14.7705 13.8494 15.6657 13.8494 16.8588C13.8494 17.9034 14.3015 18.3509 15.6561 18.8731C16.2582 19.0966 16.4841 19.1715 16.6349 19.3206C16.9354 19.4696 17.0863 19.7682 17.0863 20.0663C17.0863 20.6631 16.6349 21.1109 15.9571 21.1109C15.2791 21.1109 14.6774 20.7379 14.3763 20.1411L13.473 21.0363C14.1507 22.006 14.9787 22.4535 16.0325 22.4535C17.5377 22.4535 18.591 21.4838 18.591 20.0663C18.5912 18.7984 18.1399 18.2762 16.484 17.6794Z" fill="#2B2B2B"/>
<path d="M49.0003 19.0965C50.1289 18.873 50.7313 18.1268 50.7313 17.0081C50.7313 15.6656 49.7526 14.8446 48.097 14.8446H45.914V22.1554H47.3441V19.2458H47.5702L49.6019 22.1554H51.3333L49.0003 19.0965ZM47.7955 18.2013H47.3442V15.9636H47.7955C48.6988 15.9636 49.2259 16.3364 49.2259 17.0829C49.2259 17.8285 48.6989 18.2013 47.7955 18.2013Z" fill="#2B2B2B"/>
</svg>
