<svg width="56" height="37" viewBox="0 0 56 37" fill="none" xmlns="http://www.w3.org/2000/svg">
<path d="M0 4.625C0 2.07068 2.08934 0 4.66667 0H51.3333C53.9107 0 56 2.07068 56 4.625V32.375C56 34.9293 53.9107 37 51.3333 37H4.66667C2.08934 37 0 34.9293 0 32.375V4.625Z" fill="#CCEFFF"/>
<path d="M34.1237 29.4102H21.8748V7.59344H34.1237V29.4102Z" fill="#6C6BBD"/>
<path d="M22.6595 18.5C22.6595 14.0744 24.7503 10.1321 28.0062 7.5916C25.6252 5.73384 22.6203 4.625 19.3546 4.625C11.6235 4.625 5.35643 10.8369 5.35643 18.5C5.35643 26.1631 11.6235 32.375 19.3546 32.375C22.6203 32.375 25.6252 31.2662 28.0062 29.4084C24.7503 26.8679 22.6595 22.9256 22.6595 18.5Z" fill="#EB001B"/>
<path d="M50.6436 18.5C50.6436 26.1631 44.3765 32.375 36.6453 32.375C33.3796 32.375 30.3747 31.2662 27.9929 29.4084C31.2497 26.8679 33.3405 22.9256 33.3405 18.5C33.3405 14.0744 31.2497 10.1321 27.9929 7.5916C30.3747 5.73384 33.3796 4.625 36.6453 4.625C44.3765 4.625 50.6436 10.8369 50.6436 18.5Z" fill="#0099DF"/>
</svg>
