<svg width="55" height="37" viewBox="0 0 55 37" fill="none" xmlns="http://www.w3.org/2000/svg">
<path d="M0 4.625C0 2.07068 2.05203 0 4.58333 0H50.4167C52.948 0 55 2.07068 55 4.625V32.375C55 34.9293 52.948 37 50.4167 37H4.58333C2.05203 37 0 34.9293 0 32.375V4.625Z" fill="#FDEACE"/>
<path d="M33.2436 7.54727L21.403 7.58925L21.7564 29.4528L33.597 29.4108L33.2436 7.54727Z" fill="#FF5F00"/>
<path d="M22.1838 18.5642C22.1116 14.1175 24.0874 10.1661 27.1812 7.603C24.8469 5.75508 21.9201 4.64398 18.7471 4.65519C11.2302 4.68174 5.24965 10.9287 5.37451 18.6236C5.49936 26.3185 11.6819 32.5225 19.1989 32.496C22.3719 32.4848 25.2622 31.3531 27.5363 29.4889C24.3603 26.9866 22.2559 23.011 22.1838 18.5642Z" fill="#EB001B"/>
<path d="M49.6255 18.3765C49.7504 26.0713 43.7698 32.3183 36.2529 32.3449C33.0799 32.3561 30.1531 31.245 27.8188 29.3971C30.9504 26.8338 32.8884 22.8826 32.8162 18.4358C32.7441 13.989 30.6403 10.0521 27.4637 7.51113C29.7378 5.64694 32.6281 4.5153 35.8011 4.50409C43.3181 4.47754 49.5013 10.7202 49.6255 18.3765Z" fill="#F79E1B"/>
</svg>
