<svg width="55" height="37" viewBox="0 0 55 37" fill="none" xmlns="http://www.w3.org/2000/svg">
<path d="M0 4.625C0 2.07068 2.05203 0 4.58333 0H50.4167C52.948 0 55 2.07068 55 4.625V32.375C55 34.9293 52.948 37 50.4167 37H4.58333C2.05203 37 0 34.9293 0 32.375V4.625Z" fill="#D8E3F3"/>
<path d="M47.3343 11.603H44.453C43.5819 11.603 42.9118 11.8735 42.5097 12.7525L37.0151 25.3969H40.9016C40.9016 25.3969 41.5716 23.7064 41.7057 23.3007C42.1077 23.3007 45.9271 23.3007 46.4632 23.3007C46.5972 23.774 46.9323 25.3292 46.9323 25.3292H50.4167L47.3343 11.603ZM42.7778 20.4608C43.1128 19.6494 44.2519 16.6067 44.2519 16.6067C44.2519 16.6743 44.587 15.7952 44.721 15.3219L44.989 16.539C44.989 16.539 45.7261 19.8523 45.8601 20.5284H42.7778V20.4608Z" fill="#3362AB"/>
<path d="M37.2831 20.8666C37.2831 23.7065 34.7368 25.5997 30.7834 25.5997C29.1082 25.5997 27.5 25.2617 26.6289 24.856L27.165 21.7456L27.634 21.9484C28.8401 22.4894 29.6442 22.6922 31.1184 22.6922C32.1905 22.6922 33.3297 22.2865 33.3297 21.3399C33.3297 20.7313 32.8606 20.3256 31.3864 19.6495C29.9793 18.9733 28.1031 17.8914 28.1031 15.9305C28.1031 13.2258 30.7164 11.4002 34.4018 11.4002C35.809 11.4002 37.0151 11.6707 37.7522 12.0087L37.2161 14.9839L36.9481 14.7134C36.278 14.4429 35.4069 14.1725 34.1338 14.1725C32.7266 14.2401 32.0565 14.8486 32.0565 15.3896C32.0565 15.9981 32.8606 16.4715 34.1338 17.08C36.278 18.0943 37.2831 19.2438 37.2831 20.8666Z" fill="#3362AB"/>
<path d="M4.58334 11.7383L4.65035 11.4679H10.413C11.2171 11.4679 11.8202 11.7383 12.0212 12.6173L13.2944 18.7029C12.0212 15.4573 9.07287 12.8202 4.58334 11.7383Z" fill="#F9B50B"/>
<path d="M21.4023 11.603L15.5726 25.3293H11.6192L8.26877 13.8344C10.681 15.3896 12.6913 17.8238 13.4284 19.5142L13.8304 20.9342L17.4488 11.5354H21.4023V11.603Z" fill="#3362AB"/>
<path d="M22.9435 11.5354H26.6289L24.2836 25.3293H20.5982L22.9435 11.5354Z" fill="#3362AB"/>
</svg>
